<?xml version="1.0" encoding="utf-8"?>
<!-- Generator: Adobe Illustrator 21.0.0, SVG Export Plug-In . SVG Version: 6.00 Build 0)  -->
<svg version="1.1" id="图层_1" xmlns="http://www.w3.org/2000/svg" xmlns:xlink="http://www.w3.org/1999/xlink" x="0px" y="0px"
	 viewBox="0 0 1000 1000" style="enable-background:new 0 0 1000 1000;" xml:space="preserve">
<style type="text/css">
	.st0{fill:#FFFFFF;}
	.st1{fill:#E84729;}
	.st2{fill:#231815;}
</style>
<ellipse transform="matrix(0.7071 -0.7071 0.7071 0.7071 -116.0248 289.1816)" class="st0" cx="291.1" cy="284.6" rx="31.4" ry="31.4"/>
<ellipse transform="matrix(0.9732 -0.2298 0.2298 0.9732 -46.4573 170.3651)" class="st0" cx="708.2" cy="284.6" rx="31.4" ry="31.4"/>
<path class="st1" d="M129.3,450c-60.6,0-109.9,49.3-109.9,109.9s49.3,109.9,109.9,109.9s109.9-49.3,109.9-109.9
	C239.2,499.3,189.9,450,129.3,450z"/>
<path class="st1" d="M870.7,450.2c-60.6,0-109.9,49.3-109.9,109.9S810.1,670,870.7,670s109.9-49.3,109.9-109.9
	S931.3,450.2,870.7,450.2z"/>
<path class="st2" d="M348,305.7l4.1-3.6l-63.7-72.5l-24.7-27.9l-8.1,7.2l20.3,22.9c-3.2-0.4-6.4-0.6-9.7-0.6
	c-45.5,0-82.4,36.9-82.4,82.4s36.9,82.4,82.4,82.4c45.4,0,82.3-36.9,82.3-82.4C348.4,310.9,348.3,308.3,348,305.7L348,305.7z
	 M313.2,306.9c-12.3,12.3-32.1,12.3-44.4,0s-12.3-32.1,0-44.4s32.1-12.3,44.4,0C325.5,274.7,325.5,294.6,313.2,306.9z M733.1,231.2
	c-3.3,0-6.6,0.2-9.7,0.6l20.3-22.9l-8.1-7.2l-24.7,27.9l-63.8,72.5l4.1,3.6l0,0c-0.2,2.6-0.3,5.2-0.3,7.9
	c0,45.5,36.9,82.4,82.3,82.4c45.5,0,82.4-36.9,82.4-82.4S778.6,231.2,733.1,231.2z M715.4,315.2c-16.9,4-33.8-6.5-37.8-23.3
	c-4-16.9,6.5-33.8,23.3-37.8c16.9-4,33.8,6.5,37.8,23.3C742.8,294.3,732.3,311.2,715.4,315.2z M586.3,600
	c-14.1-21.2-57.4-75.4-88.2-71.1c-38.2,5.3-85,66.9-85.4,67.5l-8.6-6.5c2-2.7,49.9-65.8,92.6-71.7c43.8-6.1,96.4,72.5,98.6,75.9
	L586.3,600z M129.3,677c-64.6,0-117.1-52.5-117.1-117.1s52.5-117.1,117.1-117.1s117.1,52.5,117.1,117.1S193.9,677,129.3,677z
	 M129.3,450c-60.6,0-109.9,49.3-109.9,109.9s49.3,109.9,109.9,109.9s109.9-49.3,109.9-109.9C239.2,499.3,189.9,450,129.3,450z
	 M870.7,677.2c-64.6,0-117.1-52.5-117.1-117.1S806.1,443,870.7,443s117.1,52.5,117.1,117.1S935.3,677.2,870.7,677.2z M870.7,450.2
	c-60.6,0-109.9,49.3-109.9,109.9S810.1,670,870.7,670s109.9-49.3,109.9-109.9S931.3,450.2,870.7,450.2z M511.1,439.4
	c-2.8-1-7-0.5-11.5,2.5c-4.5-3-8.6-3.4-11.5-2.5c-18.9,6.4,11.5,23.4,11.5,23.4S530,445.8,511.1,439.4z"/>
</svg>
