<svg xmlns="http://www.w3.org/2000/svg" width="2000" height="2000"><path fill="#FEB301" d="M1579 749c6.576 4.365 11.39 10.185 13.001 18.026q.374 2.205.71 4.415l.404 2.414q.424 2.54.834 5.084c.718 4.422 1.49 8.836 2.266 13.249l.46 2.615A218 218 0 0 0 1604 824l.845 2.643c6.61 20.31 15.864 39.855 28.155 57.357l2.05 2.934c13.295 18.611 28.808 36.062 46.95 50.066l1.623 1.264c35.346 27.375 75.488 41.895 119.309 48.557 11.32 1.763 20.681 3.83 28.068 13.179 4.289 6.64 3.711 14.33 3 22-1.436 6.302-4.747 10.268-9.512 14.492-8.223 4.983-18.206 5.784-27.522 7.325-15.735 2.627-30.904 5.82-45.966 11.183l-2.214.76c-30.684 10.56-58.25 27.957-81.786 50.24l-1.889 1.786c-10.488 10-19.734 20.39-28.111 32.214l-1.33 1.848c-12.129 16.975-21.667 35.524-28.67 55.152l-.917 2.51c-6.52 18.095-9.767 36.838-12.981 55.744-1.807 10.529-3.726 17.18-11.907 24.3-7.004 4.612-15.134 4.114-23.195 3.446-6.092-1.434-10.002-5.6-14.238-10-4.351-7.41-5.124-16.67-6.446-25.044-8.225-52.069-29.776-97.914-66.316-135.956l-2.594-2.719c-38.44-39.412-89.952-58.845-143.328-67.047-8.742-1.383-16.734-3.158-22.723-10.156-4.282-6.368-6.254-13.398-5.355-21.078 1.347-6.452 4.09-12.496 9-17 5.516-3.493 11.062-4.887 17.438-5.937l5.585-1.004 2.949-.52c59.954-10.663 115.767-36.68 154.028-85.539q1.477-1.815 2.957-3.629c28.239-35.154 41.35-75.818 49.16-119.594l.523-2.881q.466-2.598.892-5.202c1.207-6.83 3.253-13.812 9.156-18.006 9.559-6.521 19.711-7.383 30.312-2.688M463.938 751.875c8.786 9.052 9.472 21.967 11.509 33.934 2.349 13.674 5.146 27.008 9.553 40.191l.8 2.408c9 26.647 22.407 50.82 40.2 72.592l1.563 1.914C537.351 914.796 547.851 925.49 560 935l2.984 2.395c36.114 28.712 78.53 43.698 123.86 50.086 8.098 1.226 16.288 3.489 22.156 9.519 4.588 6.934 7.025 13.562 6 22-2.469 9.566-6.462 14.704-14.788 19.848-3.474 1.81-6.904 2.4-10.751 2.96l-2.41.4a619 619 0 0 1-5.066.817c-4.406.696-8.8 1.458-13.196 2.221l-2.604.45c-9.94 1.745-19.59 4.183-29.185 7.304l-2.333.747C591.903 1067.724 551.425 1095.084 524 1131l-1.251 1.61c-27.383 35.348-41.907 75.494-48.57 119.322-1.763 11.32-3.83 20.681-13.179 28.068-6.64 4.289-14.33 3.711-22 3-6.302-1.436-10.268-4.747-14.492-9.512-4.983-8.223-5.784-18.206-7.325-27.522-2.627-15.735-5.82-30.904-11.183-45.966l-.76-2.214c-10.56-30.684-27.957-58.25-50.24-81.786l-1.786-1.889c-9.998-10.487-20.386-19.742-32.214-28.111l-1.88-1.345c-16.14-11.46-33.628-20.636-52.12-27.655l-2.16-.823c-19.453-7.262-40.042-11.165-60.502-14.353-8.268-1.36-15.622-3.038-21.213-9.699l-1.68-1.93c-4.611-7.004-4.113-15.134-3.445-23.195 1.434-6.092 5.6-10.002 10-14.238 8.41-4.94 19.326-5.56 28.813-7.074C258.67 978.678 297.937 963.005 331 936l1.55-1.243C347.05 923.115 360.006 910 371 895l1.287-1.725c24.3-32.598 38.33-69.695 44.947-109.65l.642-3.807q.609-3.66 1.162-7.33c1.526-9.313 4.45-16.243 11.942-22.234 10.763-6.683 22.627-4.973 32.957 1.621"/><path fill="#322427" d="m849.113 978.372 3.51-.022c3.848-.017 7.695 0 11.543.019 2.772-.002 5.544-.012 8.316-.022 6.728-.018 13.456-.01 20.184.008a5155 5155 0 0 0 18.777.013l4.759-.003c14.003-.008 28.006.008 42.01.038q20.354.044 40.707.02a19174 19174 0 0 1 51.492.006q8.191.007 16.382-.005 9.99-.011 19.979.024 5.09.02 10.181.008c3.687-.009 7.374.007 11.061.03l3.215-.026c11.193.124 19.594 3.379 27.61 11.192 6.577 7.147 10.256 15.492 10.119 25.375a276 276 0 0 1-2.856 22.286l-.577 3.474q-.939 5.609-1.9 11.213l-.67 3.928c-9.744 57.047-21.702 114.08-39.955 169.072l-.681 2.056c-6.122 18.411-13.052 36.377-21.319 53.944l-1.359 2.9c-15.936 33.716-37.79 68.007-74.008 81.944-19.544 6.22-40.621 4.769-58.825-4.595-57.375-30.842-80.95-107.488-98.565-165.754C834.95 1150.952 824.824 1105.617 816 1060l-.56-2.894a2017 2017 0 0 1-3.1-16.404q-.457-2.468-.922-4.935c-2.726-14.528-4.88-28.365 3.332-41.517 8.454-11.712 20.146-16.037 34.363-15.878"/><path fill="#FD7180" d="m979.25 1080.75 2.193-.017c9.699-.054 18.973.61 28.557 2.267l2.413.397c13.91 2.348 26.93 6.292 40.208 10.982l2.264.799c2.114.821 4.104 1.775 6.115 2.822-1.496 9.87-3.568 19.577-5.75 29.313l-.539 2.408c-5.18 23.117-11.414 45.733-18.711 68.279l-1.172 3.635c-24.683 75.89-24.683 75.89-49.828 94.365-2.941.992-2.941.992-6 1-40.538-24.527-57.394-102.19-68.145-144.666a878 878 0 0 0-2.914-11.006c-10.233-37.885-10.233-37.885-9.941-44.328 26.651-11.126 52.524-16.106 81.25-16.25"/><path fill="#322427" d="m374.5 537.563 2.37-.038c11.99-.157 22.69.871 32.349 8.71 7.475 7.41 11.657 17.016 12.031 27.452-.136 10.134-3.987 18.34-10.5 25.938-10.257 8.859-18.333 10.588-31.625 10.813-32.86.923-60.694 11.591-84.657 34.183-8.104 7.613-16.696 12.326-28.093 12.817-11.307-.642-20.475-5.03-28.187-13.25-7.12-8.623-8.984-18.235-8.188-29.188 3.529-20.067 23.093-33.534 38.66-44.629 8.684-6.053 17.726-10.967 27.34-15.371l2.202-1.023c12.57-5.783 25.328-9.851 38.798-12.977l2.243-.543c11.616-2.71 23.389-2.789 35.257-2.894M1600.5 538.75l2.246-.002c50.431.073 96.593 20.26 132.418 55.373 6.944 7.343 10.174 16.626 9.984 26.711-.649 9.481-4.485 18.32-11.148 25.168-10.656 8.266-20.728 10.53-34 9-8.895-1.962-14.727-7.068-21.082-13.23-21.894-21.13-52.6-30.233-82.418-29.77l-2.966.11c-11.945.323-21.725-2.719-30.507-10.962-7.857-8.374-10.4-17.421-10.312-28.687.913-11.088 6.531-19.512 14.777-26.629 9.935-7.258 21.24-7.072 33.008-7.082"/><path fill="#FE7281" d="M318.242 1304.66c4.094 3.12 6.928 7.238 7.758 12.34.39 6.48-.777 11.252-3.055 17.29l-.958 2.63a928 928 0 0 1-1.997 5.419 916 916 0 0 0-2.764 7.547c-29.205 80.436-29.205 80.436-44.601 88.989-5.325 1.652-9.367 2.025-14.375-.562-3.366-2.395-4.523-3.64-6.25-7.313-4.655-34.444 18.32-73.994 31.16-104.964.838-2.03 1.665-4.064 2.493-6.099l1.57-3.789c.45-1.099.902-2.198 1.367-3.33 2.516-5.028 6.03-7.403 10.723-10.193 6.683-1.554 12.889-1.4 18.93 2.035M1654.5 1311.688c7.026 6.499 9.494 12.959 9.937 22.463.134 4.158.199 8.315.25 12.474l.097 5.458c.08 4.709.138 9.417.187 14.125q.043 4.076.095 8.151c.765 64.877.765 64.877-9.129 77.079-4.524 3.946-8.415 3.982-14.21 3.89-3.16-.38-5.281-1.29-7.524-3.61-8.57-12.243-9.332-30.51-9.38-45.058l-.02-2.684c-.02-2.9-.031-5.8-.041-8.699l-.013-3.02q-.03-7.902-.044-15.803c-.011-5.426-.046-10.852-.085-16.277-.027-4.19-.035-8.378-.038-12.568q-.008-3-.035-6a750 750 0 0 1-.017-8.398l-.039-2.477c.058-6.418 1.732-11.92 6.325-16.574l1.746-1.098 1.754-1.152c6.044-3.267 14.115-3.149 20.184-.223M233.313 1297.688c4.288 2.472 6.788 4.82 8.507 9.585 3.346 13.113-4.48 27.754-9.07 39.977l-.871 2.331c-19.316 51.602-19.316 51.602-33.402 58.689-3.644 1.074-6.896.835-10.477-.27-2.958-1.823-5.42-3.84-7-7-.77-12.24.206-23.314 4-35l.978-3.037c4.664-14.314 9.848-28.408 15.397-42.4l.765-1.946a869 869 0 0 1 2.196-5.488l1.267-3.154c2.8-5.961 5.655-9.676 11.397-12.975 5.574-1.858 10.943-1.806 16.313.688M1574.813 1336.5c4.995 3.307 8.004 8.72 9.187 14.5.148 2.001.248 4.006.316 6.012l.128 3.687.119 3.988.062 2.05c2.12 71.242 2.12 71.242-9.625 84.263-3.57 2.677-7.718 2.504-12 2-4.275-1.315-5.667-2.49-8.125-6.25-4.25-9.847-6.11-19.878-6.973-30.492l-.256-3.134c-.873-11.694-.983-23.381-.962-35.103.004-3.706-.02-7.41-.045-11.115q-.004-3.566-.002-7.133l-.028-3.323c.034-5.55.165-9.707 3.391-14.45 6.854-6.556 15.7-10.006 24.813-5.5"/><path fill="#F6F8F7" d="M1557.375 875.5c5.915 3.522 10.507 8.958 12.625 15.5.371 2.543.371 2.543.438 5.188l.12 2.605c-1.731 9.942-8.143 16.51-15.183 23.27l-2.714 2.65c-12.252 11.866-23.54 22.776-41.49 22.557-4.202-.358-6.219-1.242-9.171-4.27-4.383-5.877-4.894-11.867-4-19 2.391-13.765 14.909-24.935 24.012-34.82 1.951-2.14 3.812-4.338 5.676-6.555 7.449-8.555 18.874-11.947 29.687-7.125M436.375 886.125 439 888l1.766 1.219c5.542 4.192 8.182 9.059 9.683 15.797 1.038 12.084-7.354 26.38-14.441 35.566-8.218 9.753-19.27 17.246-32.156 18.797-4.653.178-7.97.03-12.227-1.942-9.29-8.625-9.29-8.625-9.863-15.144-.152-6.361-.224-10.396 4.238-15.293q2.154-2.096 4.313-4.187c6.2-6.078 10.717-12.83 13.687-21 2.518-6.74 7.335-12.87 13.848-16.192 6.009-1.734 12.638-1.46 18.527.504"/><path fill="#FE7281" d="M412.242 1337.656c3.892 2.976 6.225 6.746 7.758 11.344.83 7.199-.999 13.268-3.375 20l-1.078 3.122A771 771 0 0 1 412 1382l-1.231 3.374C399.923 1414.68 399.923 1414.68 388 1423c-4.876 1.625-10.166 1.92-15.105.316-4.353-2.236-6.208-4.816-7.895-9.316-5.034-17.418 4.603-36.649 10.96-52.579a557 557 0 0 0 1.794-4.56c6.436-16.473 6.436-16.473 14.246-20.861 6.86-2.112 13.954-1.908 20.242 1.656M1752.203 1306.719c5.62 3.03 8.806 7.345 10.797 13.281 1.376 11.115 1.215 22.507 1.24 33.693.01 2.634.041 5.268.072 7.903.075 11.835-.118 23.967-8.312 33.404-3.29 2.84-6.72 4.23-11.062 4.438-4.953-.55-8.061-1.442-11.536-5.137-5.574-6.972-7.778-14.287-8.57-23.04l-.24-2.478c-.759-8.474-.93-16.936-.908-25.44a701 701 0 0 0-.045-7.704q-.004-2.498-.002-4.994l-.028-2.28c.053-6.178 1.213-11.805 5.329-16.642l2.062-1.66 2.063-1.715c5.18-3.604 13.273-3.543 19.14-1.63"/><path fill="#F6F8F7" d="M360.688 970.563c5.164 3.272 9.846 8.426 11.312 14.437.638 7.654-.854 13.9-5.25 20.25-6.937 6.937-14.809 11.885-24.812 12.25-6.646-.27-11.074-1.783-15.91-6.371-6.29-6.832-7.603-12.341-7.477-21.606.83-6.51 4.26-10.334 8.762-14.836L330 973l1.715-1.121c7.951-4.41 20.64-5.032 28.973-1.317M1476.734 958.371c3.63 2.61 6.014 5.802 8.266 9.629l1.133 1.887c2.053 5.002 1.623 11.275.25 16.43-3.46 7.824-9.902 12.324-17.57 15.62-7.157 2.51-14.582 3.671-21.973 1.399-5.313-2.686-9.963-7.705-11.84-13.336-1.262-14.192-1.262-14.192 3.258-20.129 10.916-11.724 22.837-20.131 38.476-11.5"/></svg>