<?xml version="1.0" encoding="utf-8"?>
<!-- Generator: Adobe Illustrator 21.0.0, SVG Export Plug-In . SVG Version: 6.00 Build 0)  -->
<svg version="1.1" id="图层_1" xmlns="http://www.w3.org/2000/svg" xmlns:xlink="http://www.w3.org/1999/xlink" x="0px" y="0px"
	 viewBox="0 0 1000 1000" style="enable-background:new 0 0 1000 1000;" xml:space="preserve">
<style type="text/css">
	.st0{fill:#DB6F71;}
	.st1{fill:#7C181D;}
	.st2{fill:#FFFFFF;}
	.st3{fill:#E84729;}
	.st4{fill:#231815;}
</style>
<path class="st0" d="M497.3,747.7c-48.4-2.7-79.4-65.8-97.1-119.4c6.2-4.8,25.9-18.6,55.5-25.8c45-11,91-2.2,137,26.1
	C576,685.2,546.1,750.6,497.3,747.7z"/>
<path class="st1" d="M594.7,621.4c-25.2-15.3-50.9-24.9-76.4-28.8c-21.7-3.3-43.4-2.3-64.4,2.8c-28.1,6.9-47.8,19.5-56.1,25.6
	c-7.7-24.8-12.4-46.5-14.5-56.8c12.1,4.4,25.5,5.8,40,4.1c34.8-4,46.9-20,55.7-31.7c5.6-7.5,8.9-11.4,14.8-11.4
	c6.9,0,15.1,7,24.6,15.2c15,12.8,33.4,28.7,59.2,28.7c0.9,0,1.9,0,2.8-0.1c9.3-0.4,18.4-2.1,27.2-5
	C605.9,574.3,601.8,596.2,594.7,621.4z"/>
<ellipse transform="matrix(0.2298 -0.9732 0.9732 0.2298 -74.8287 510.3781)" class="st2" cx="285" cy="302.5" rx="31.4" ry="31.4"/>
<path class="st3" d="M123.5,426.1c-60.6,0-109.9,49.3-109.9,109.9s49.3,109.9,109.9,109.9S233.4,596.6,233.4,536
	C233.4,475.4,184.1,426.1,123.5,426.1z"/>
<path class="st3" d="M864.8,426.3c-60.6,0-109.9,49.3-109.9,109.9s49.3,109.9,109.9,109.9s109.9-49.3,109.9-109.9
	S925.4,426.3,864.8,426.3z"/>
<path class="st4" d="M640.1,329c-0.7,0-1.4-0.2-2-0.6c-1.7-1.1,3.1-7.7,4.2-9.4c0.8-1.2,14.5-25.4,35.4-28.6c1.9-0.3,3.8,1.1,4.1,3
	c0.3,2-1.1,3.8-3,4.1c-17.8,2.7-35.5,29.5-35.7,29.7C642.4,328.4,641.3,329,640.1,329z M649.9,340.1c0,0,50.9-49,114.6-57.8
	s52.9,24.4,52.9,24.4s-23.2-11.1-57.6-6.5c-34.4,4.6-92.2,29.1-100.5,39.8C650.9,350.8,649.9,340.1,649.9,340.1z M649,536.6
	l-5.7-4.4c-0.1,0.1-11.3,14.2-32.4,23c-10,4.1-20,6.3-30.8,6.7c-24.4,1.1-42.4-14.4-57-26.9c-10.6-9.1-19.7-16.9-29.3-16.9
	c-9.8,0-15,6.9-20.5,14.2c-8.5,11.2-19,25.2-50.8,28.9c-15.7,1.9-29.9-0.2-42.3-6.1c-20.2-9.5-28.8-26.1-28.9-26.3l-6.4,3.2
	c0.4,0.7,9.3,18,30.6,28.7c1.3,7.1,6.8,35.1,17.1,67.3c18.2,56.2,51.1,123.8,104.3,126.8c1.2,0.1,2.4,0.1,3.6,0.1
	c52.1,0,83-68.7,99.9-127c9.1-31.6,13.8-59.2,15.1-66.9C637.2,551.6,648.6,537.2,649,536.6z M497.3,747.7
	c-48.4-2.7-79.4-65.8-97.1-119.4c6.2-4.8,25.9-18.6,55.5-25.8c45-11,91-2.2,137,26.1C576,685.2,546.1,750.6,497.3,747.7z
	 M594.7,621.4c-25.2-15.3-50.9-24.9-76.4-28.8c-21.7-3.3-43.4-2.3-64.4,2.8c-28.1,6.9-47.8,19.5-56.1,25.6
	c-7.7-24.8-12.4-46.5-14.5-56.8c12.1,4.4,25.5,5.8,40,4.1c34.8-4,46.9-20,55.7-31.7c5.6-7.5,8.9-11.4,14.8-11.4
	c6.9,0,15.1,7,24.6,15.2c15,12.8,33.4,28.7,59.2,28.7c0.9,0,1.9,0,2.8-0.1c9.3-0.4,18.4-2.1,27.2-5
	C605.9,574.3,601.8,596.2,594.7,621.4z M260.3,245c-45.5,0-82.3,36.8-82.3,82.3s36.8,82.3,82.3,82.3s82.3-36.8,82.3-82.3
	S305.8,245,260.3,245z M315.8,309.6c-4,16.9-20.9,27.3-37.8,23.3s-27.3-20.9-23.3-37.8c4-16.9,20.9-27.3,37.8-23.3
	C309.3,275.8,319.7,292.7,315.8,309.6z M123.5,653.1C58.9,653.1,6.4,600.6,6.4,536s52.5-117.1,117.1-117.1S240.6,471.4,240.6,536
	S188.1,653.1,123.5,653.1z M123.5,426.1c-60.6,0-109.9,49.3-109.9,109.9s49.3,109.9,109.9,109.9S233.4,596.6,233.4,536
	C233.4,475.4,184.1,426.1,123.5,426.1z M864.8,653.3c-64.6,0-117.1-52.5-117.1-117.1s52.5-117.1,117.1-117.1s117.1,52.5,117.1,117.1
	S929.4,653.3,864.8,653.3z M864.8,426.3c-60.6,0-109.9,49.3-109.9,109.9s49.3,109.9,109.9,109.9s109.9-49.3,109.9-109.9
	S925.4,426.3,864.8,426.3z M505.3,415.5c-2.8-1-7-0.5-11.5,2.5c-4.5-3-8.6-3.4-11.5-2.5c-18.9,6.4,11.5,23.4,11.5,23.4
	S524.2,421.9,505.3,415.5z"/>
</svg>
