<svg xmlns="http://www.w3.org/2000/svg" width="2000" height="2000"><path fill="#82B1E6" d="m1314.601 768.31 2.236.146c9.2.635 18.369 1.61 27.54 2.58q3.009.315 6.019.627 8.203.856 16.405 1.72 8.871.933 17.744 1.858 17.352 1.815 34.702 3.638a133154 133154 0 0 0 36.345 3.814l2.044.214q28.424 2.98 56.847 5.968l2.161.228 10.842 1.14 2.175.228 4.354.458q33.9 3.564 67.8 7.11a139648 139648 0 0 1 84.4 8.854l2.023.213q15.096 1.586 30.193 3.162 17.166 1.793 34.331 3.606 8.754.926 17.51 1.836 8.02.833 16.037 1.688 2.895.306 5.79.603c32.062 3.296 32.062 3.296 42.776 14.874 8.145 10.028 9.227 20.565 8.125 33.125-2.18 9.757-8.802 18.396-17 24-14.417 7.767-29.902 4.76-45.5 3q-3.883-.431-7.766-.856-2.398-.262-4.795-.534c-3.346-.371-6.567-.61-9.939-.61q10.426 2.526 20.855 5.042l7.403 1.79c12.511 3.028 25.021 6.044 37.59 8.824l2.699.602c4.085.91 8.173 1.806 12.268 2.673 13.047 2.843 24.24 6.756 32.185 18.069 5.953 9.84 6.435 21.027 4.422 32.21-2.94 9.326-9.886 17.106-18.41 21.83-12.528 5.983-25.225 4.056-38.581 2.133q-3.708-.53-7.42-1.042-5.436-.753-10.87-1.518a6523 6523 0 0 0-29.625-4.082l-3.161-.43c-31.144-4.223-62.358-7.887-93.568-11.58l-10.378-1.229q-6.38-.757-12.763-1.503l-5.69-.673-2.594-.3-2.38-.283-2.052-.24c-2.02-.307-3.957-.767-5.93-1.293l.138 1.691c1.965 24.085 3.92 48.168 5.05 72.309l.11 2.299c.279 5.899.498 11.8.702 17.701l.128 3.618c.92 26.627 1.074 53.242 1.06 79.882l-.001 3.27c-.012 38.777-.502 77.489-2.187 116.23l-.098 2.26c-2.619 60.171-6.484 120.255-11.718 180.256l-.528 6.095c-2.134 24.518-4.937 48.918-7.656 73.389h-173l-.438-53.188a99980 99980 0 0 0-.28-32.472c-.01-.979-.01-.979-.018-1.977L1443 1402l-.03-3.315c-.818-90.042-2.478-180.082-19.335-452.217l-.255-2.427-.224-2.088c-.158-1.979-.156-3.968-.156-5.953l-2.412-.142c-10.088-.65-20.075-1.799-30.104-3.046l-5.39-.662q-7.188-.885-14.374-1.78l-8.94-1.11c-25.846-3.21-51.682-6.487-77.492-9.977q-3.128-.42-6.255-.838c-3.852-.514-7.702-1.041-11.553-1.57l-3.33-.444c-14.904-2.083-27.448-5.022-37.459-16.994-5.952-8.577-7.651-18.481-6.418-28.703 1.871-10.094 7.583-18.948 15.914-24.922 13.092-8.216 27.325-6.16 41.989-4.062l3.912.538c3.386.466 6.77.942 10.155 1.42 3.472.49 6.946.968 10.42 1.448q10.17 1.409 20.337 2.844l-2.136-.547c-3.251-.843-6.495-1.71-9.739-2.578l-3.36-.86c-11.331-3.066-21.771-8.14-28.234-18.331-5.163-9.591-6.543-18.96-4.531-29.684 1.034-3.2 2.366-6.067 4-9l1.687-3.063c9.125-11.59 20.205-16.669 34.914-15.627M714.313 777.188q12.243 11.783 12.785 28.894c-.575 10.916-4.08 18.383-11.293 26.496-7.596 6.56-15.835 9.732-25.43 12.297l-3.332.93A851 851 0 0 1 679 848l2.114-.304q9.948-1.426 19.9-2.825 5.113-.718 10.225-1.453a3055 3055 0 0 1 11.804-1.668l3.641-.53c14.721-2.032 28.206-2.814 40.691 6.405 8.253 7.099 12.716 16.583 13.824 27.3.529 9.97-2.79 19.612-9.289 27.145-8.352 8.438-18.067 12.093-29.7 13.614l-2.934.414c-3.299.46-6.6.9-9.901 1.34l-7.195.984c-26.084 3.539-52.209 6.79-78.327 10.07l-7.077.89q-10.23 1.288-20.463 2.56-3.155.392-6.308.788c-10.993 1.38-21.938 2.663-33.005 3.27a34863 34863 0 0 0-2.286 25.135C565.522 1062.147 561.288 1163.458 557 1401l-.032 3.595-.25 27.967-.032 3.741c-.242 27.566-.461 55.131-.686 82.697H383c-5.915-53.231-5.915-53.231-7.826-75.357q-.27-3.144-.546-6.288c-5.224-60.033-9.016-120.152-11.628-180.355l-.095-2.175C358.983 1164.395 359 1073.27 368 960l-3.86.567a1295 1295 0 0 1-35.229 4.638c-3.914.461-7.828.93-11.741 1.397l-9.448 1.126c-27.953 3.332-55.901 6.68-83.792 10.506-.94.13-1.88.258-2.847.39a5529 5529 0 0 0-26.669 3.72q-4.826.683-9.655 1.355c-2.156.303-4.31.616-6.465.93-14.168 1.976-25.775 2.68-38.544-4.442-7.652-6.086-14-13.2-15.75-23.187-.81-12.783-.014-22.863 8.313-33.187 8.624-9.264 19.978-12.145 31.972-14.766l3.526-.793q3.712-.834 7.427-1.656c6.414-1.422 12.822-2.869 19.23-4.313l3.812-.856a1675 1675 0 0 0 32.87-7.753A3342 3342 0 0 0 242 891a6309 6309 0 0 0-13.464 1.144c-5.79.503-11.567 1.06-17.342 1.713-14.594 1.641-27.55 2.849-40.092-6.127-6.797-5.596-12.479-12.9-14.102-21.73-.81-12.783-.014-22.863 8.313-33.187 9.609-10.322 21.433-12.432 34.958-13.76q2.307-.244 4.614-.49 4.964-.527 9.93-1.032c5.211-.53 10.42-1.087 15.628-1.648 10.668-1.147 21.339-2.27 32.01-3.39l16.645-1.753q16.215-1.708 32.432-3.412 18.918-1.99 37.836-3.982 34.762-3.66 69.526-7.314l67.457-7.098 2.038-.215 10.158-1.069 2.024-.213a1092267 1092267 0 0 1 122.959-12.938l16.349-1.72 20.377-2.143c41.189-4.341 41.189-4.341 54.058 6.552"/><path fill="#322427" d="m1314.601 768.31 2.236.146c9.2.635 18.369 1.61 27.54 2.58q3.009.315 6.019.627 8.203.856 16.405 1.72 8.871.933 17.744 1.858 17.352 1.815 34.702 3.638a133154 133154 0 0 0 36.345 3.814l2.044.214q28.424 2.98 56.847 5.968l2.161.228 10.842 1.14 2.175.228 4.354.458q33.9 3.564 67.8 7.11a139648 139648 0 0 1 84.4 8.854l2.023.213q15.096 1.586 30.193 3.162 17.166 1.793 34.331 3.606 8.754.926 17.51 1.836 8.02.833 16.037 1.688 2.895.306 5.79.603c32.062 3.296 32.062 3.296 42.776 14.874 8.145 10.028 9.227 20.565 8.125 33.125-2.18 9.757-8.802 18.396-17 24-14.417 7.767-29.902 4.76-45.5 3q-3.883-.431-7.766-.856-2.398-.262-4.795-.534c-3.346-.371-6.567-.61-9.939-.61q10.426 2.526 20.855 5.042l7.403 1.79c12.511 3.028 25.021 6.044 37.59 8.824l2.699.602c4.085.91 8.173 1.806 12.268 2.673 13.047 2.843 24.24 6.756 32.185 18.069 5.953 9.84 6.435 21.027 4.422 32.21-2.94 9.326-9.886 17.106-18.41 21.83-12.528 5.983-25.226 4.056-38.582 2.133q-3.706-.53-7.416-1.042-5.436-.753-10.868-1.518a6504 6504 0 0 0-29.697-4.09l-3.167-.43c-30.655-4.156-61.378-7.772-92.099-11.407l-10.186-1.207q-6.212-.736-12.425-1.464a1105 1105 0 0 1-30.237-3.97c-7.195-1.043-14.398-1.901-21.628-2.658l-3.803-.409q-3.99-.429-7.98-.853a9124 9124 0 0 1-21.272-2.293l-2.156-.234c-13.553-1.474-27.09-3.07-40.621-4.723a3401 3401 0 0 0-51.518-5.878c-11.022-1.177-22.024-2.402-33.004-3.93-7.356-.995-14.727-1.687-22.119-2.364-17.699-1.66-35.333-3.806-52.971-6.007l-7.842-.975c-24.217-3.007-48.421-6.106-72.605-9.372q-3.165-.426-6.33-.847c-3.91-.522-7.817-1.056-11.724-1.592l-3.408-.453c-14.977-2.088-27.598-4.983-37.663-17.02-5.952-8.577-7.651-18.481-6.418-28.703 1.871-10.094 7.583-18.948 15.914-24.922 13.092-8.216 27.325-6.16 41.989-4.062l3.912.538c3.386.466 6.77.942 10.155 1.42 3.472.49 6.946.968 10.42 1.448q10.17 1.409 20.337 2.844l-2.136-.547c-3.251-.843-6.495-1.71-9.739-2.578l-3.36-.86c-11.331-3.066-21.771-8.14-28.234-18.331-5.163-9.591-6.543-18.96-4.531-29.684 1.034-3.2 2.366-6.067 4-9l1.687-3.063c9.125-11.59 20.205-16.669 34.914-15.627M714.313 777.188q12.243 11.783 12.785 28.894c-.575 10.916-4.08 18.383-11.293 26.496-7.596 6.56-15.835 9.732-25.43 12.297l-3.332.93A851 851 0 0 1 679 848l2.114-.304q9.948-1.426 19.9-2.825 5.113-.718 10.225-1.453a3055 3055 0 0 1 11.804-1.668l3.641-.53c14.721-2.032 28.206-2.814 40.691 6.405 8.253 7.099 12.716 16.583 13.824 27.3.529 9.97-2.79 19.612-9.289 27.145-8.352 8.438-18.067 12.093-29.7 13.614l-2.932.414c-3.3.46-6.6.9-9.903 1.34l-7.234.989c-25.723 3.486-51.483 6.708-77.239 9.95q-5.142.646-10.285 1.297c-22.981 2.9-45.942 5.737-69.023 7.716-6.89.604-13.738 1.46-20.594 2.36-15.867 2.05-31.765 3.792-47.67 5.517l-6.442.7-2.146.233-6.363.692-2.088.227-4.137.449c-16.06 1.744-32.11 3.55-48.154 5.432l-3.184.373q-11.338 1.329-22.674 2.668l-7.597.895c-13.252 1.561-26.496 3.17-39.729 4.896-13.49 1.758-26.989 3.431-40.492 5.086l-6.45.792-3.28.402-3.314.407-3.35.411-10.243 1.258-3.483.427c-36.17 4.438-36.17 4.438-72.294 9.237l-2.37.326a3977 3977 0 0 0-23.26 3.282l-3.746.53a917 917 0 0 0-6.68.97c-13.25 1.865-24.218 1.856-36.104-4.773-7.652-6.086-14-13.2-15.75-23.187-.81-12.783-.014-22.863 8.313-33.187 8.624-9.264 19.978-12.145 31.972-14.766l3.526-.793q3.712-.834 7.427-1.656c6.414-1.422 12.822-2.869 19.23-4.313l3.812-.856a1675 1675 0 0 0 32.87-7.753A3342 3342 0 0 0 242 891a6309 6309 0 0 0-13.464 1.144c-5.79.503-11.567 1.06-17.342 1.713-14.594 1.641-27.55 2.849-40.092-6.127-6.797-5.596-12.479-12.9-14.102-21.73-.81-12.783-.014-22.863 8.313-33.187 9.609-10.322 21.433-12.432 34.958-13.76q2.307-.244 4.614-.49 4.964-.527 9.93-1.032c5.211-.53 10.42-1.087 15.628-1.648 10.668-1.147 21.339-2.27 32.01-3.39l16.645-1.753q16.215-1.708 32.432-3.412 18.918-1.99 37.836-3.982 34.762-3.66 69.526-7.314l67.457-7.098 2.038-.215 10.158-1.069 2.024-.213a1092267 1092267 0 0 1 122.959-12.938l16.349-1.72 20.377-2.143c41.189-4.341 41.189-4.341 54.058 6.552M1005.559 779.879c6.231 5.302 10.956 11.326 15.441 18.121l1.417 2.138c8.041 12.172 15.842 24.498 23.583 36.862l1.562 2.486c8.194 13.062 16.077 26.286 23.78 39.643 1.53 2.649 3.07 5.292 4.611 7.933 24.3 41.834 46.126 85.276 61.61 131.188l.725 2.146c3.912 11.946 3.77 22.893-1.85 34.167-5.411 9.376-13.07 14.78-23.258 18.015-10.76 2.083-21.254.62-30.61-5.05-10.074-7.175-14.515-16.917-18.112-28.414-5.012-15.93-11.338-31.005-18.458-46.114l-1.504-3.221c-13.375-28.583-28.375-56.185-44.746-83.154l-1.153-1.9c-3.378-6.2-3.378-6.2-7.597-11.725-16.96 43.052-33.844 86.12-49.54 129.65q-1.341 3.719-2.686 7.435c-1.23 3.4-2.448 6.805-3.663 10.21l-1.853 5.139-.84 2.375c-3.736 10.295-10.111 17.414-19.844 22.445-9.358 3.979-19.77 4.315-29.449 1.184-10.544-4.481-17.19-11.834-21.937-22.126-5.884-16.41 1.734-32.498 7.312-47.937l.98-2.73c18.09-50.315 37.712-100.108 57.728-149.684q1.309-3.24 2.616-6.483a6722 6722 0 0 1 10.676-26.311 705 705 0 0 0 4.914-12.386c4.333-11.096 9.52-20.788 20.375-26.816 13.023-5.683 28.048-5.694 39.77 2.914M663.242 542.355c8.24 5.8 13.955 13.181 16.344 23.07 1.745 10.849.228 21.59-6.211 30.7-6.686 8.094-14.45 15.073-22.687 21.542-1.918 1.515-3.818 3.051-5.72 4.587C634.454 630.672 623.577 638.119 612 645l-2.185 1.311c-22.653 13.481-58.922 34.702-86.073 29.005-10.878-3.04-19.175-8.538-24.965-18.398-4.727-9.133-5.334-19.952-3.093-29.977 3.996-10.63 11.233-18.204 21.484-22.925 3.876-1.684 7.78-3.014 11.82-4.246 31.23-9.573 63.094-27.607 85.7-51.582 12.787-13.2 32.974-15.251 48.554-5.833M1290 537c6.384 4.844 11.511 10.396 16.29 16.79 14.66 18.945 38.217 29.4 61.476 32.753l3.609.457c11.327 1.528 18.895 5.433 26.625 14 6.92 9.853 8.14 20.258 7 32-2.46 10.915-9.799 19.04-19 25-14.757 8.29-35.903 3.06-51.268-1.053-38.448-10.933-74.8-33.821-96.732-67.947-5.53-10.55-6.125-20.627-3.035-32.04 3.321-9.5 10.425-16.74 19.285-21.335 10.353-4.92 25.897-4.485 35.75 1.375"/><path fill="#F4F8F9" d="M444.313 1117.688c4.744 2.669 7.538 6.359 9.687 11.312 1.19 8.394-1.066 16.993-2.687 25.188l-.833 4.288c-.689 3.534-1.391 7.065-2.097 10.595-.55 2.774-1.08 5.551-1.613 8.327-9.289 46.852-9.289 46.852-23.77 56.602-3.017 1.008-5.83 1.24-9 1-4.049-2.024-6.55-4.24-9-8-6.892-22.078 1.666-48.49 6.5-70.148a386 386 0 0 0 2.75-13.454l.61-3.148q.557-2.89 1.052-5.793c1.559-7.854 5.41-12.899 11.963-17.457 5.79-1.853 10.862-1.867 16.438.688"/><path fill="#F5F8F9" d="M1533.184 1136.7c4.25 2.165 6.584 5.179 8.816 9.3 2.506 8.24.515 16.557-1.25 24.75l-1.398 6.7-.703 3.352c-.584 2.88-1.12 5.76-1.626 8.655-8.935 51.182-8.935 51.182-23.21 63.418-4.021 1.608-7.543 1.788-11.813 1.125-4.441-2.056-6.57-4.192-8.398-8.732-1.306-4.922-1.038-10.023-.977-15.08l.029-3.662c.15-8.935.983-17.397 2.841-26.125.57-2.708 1.09-5.424 1.607-8.143 1.235-6.433 2.549-12.848 3.898-19.258l.748-3.56c.755-3.546 1.53-7.087 2.314-10.628l.707-3.31c1.617-7.139 3.35-13.095 9.731-17.377 5.715-3.3 12.451-3.422 18.684-1.426M503.168 1129.684c5.07 2.697 9.015 6.865 10.832 12.316.74 8.85-.686 17.334-2.399 25.973-.413 2.088-.81 4.18-1.205 6.271-6.77 35.435-6.77 35.435-17.982 45.127-4.764 3.232-9.82 3.517-15.414 2.629-5.052-2.245-7-5.165-9.238-10-5.989-15.724-.372-34.328 3.477-49.846.695-2.88 1.322-5.762 1.91-8.666l.508-2.488q.45-2.22.873-4.446c1.588-7.576 5.461-12.08 11.47-16.554 5.347-1.782 11.754-2.024 17.168-.316M1592.313 1149.188c4.71 3.177 8.104 6.75 10.687 11.812 1.339 9.6-.82 19.35-2.687 28.75l-.413 2.126c-7.663 39.47-7.663 39.47-21.9 49.124-4.722 1.574-8.536 1.574-13.187-.25-5.515-3.431-7.607-6.5-9.278-12.727-3.819-21.575 2.877-51.039 11.465-71.023 6.698-8.372 15.141-11.459 25.313-7.812"/></svg>