<svg xmlns="http://www.w3.org/2000/svg" width="2000" height="2000"><path fill="#322427" d="M965.938 892.813h2.235c25.985.012 51.891.471 77.827 2.187l2.924.191c55.266 3.658 110.253 10.509 164.639 21.059l3.526.672c11.961 2.432 21.774 6.58 28.786 17.015 7.843 13.891 3.898 33.402 2.875 48.688l-.2 3.035c-4.929 73.723-14.698 153.102-72.55 205.34-9.466 8.017-20.006 14.323-31 20l-2.022 1.05c-26.55 13.604-55.577 19.371-84.978 22.95l-2.978.364c-80.099 9.12-191.081 4.513-259.022-43.364l-3.223-2.262C778.98 1179.596 767.18 1167.467 758 1153l-2.105-3.285c-29.848-49.361-27.934-112.976-28.845-168.69q-.05-3.02-.104-6.039c-.104-5.812-.185-11.624-.232-17.436q-.027-2.708-.073-5.416c-.206-12.325.472-22.326 8.547-32.318 11.788-11.813 30.902-12.046 46.5-14.191l3.304-.458c32.5-4.484 65.08-7.82 97.82-9.917l2.795-.18c26.764-1.686 53.52-2.28 80.33-2.258M463.688 757.688l2.405.006c11.86.052 23.344.438 34.907 3.306l2.545.618c12.012 2.997 23.345 6.93 34.455 12.382l1.864.897c15.514 7.543 29.33 17.551 41.623 29.625 1.49 1.455 3.004 2.88 4.525 4.302 43.842 41.597 64.18 105.296 66.059 164.403.91 36.14-4.924 71.75-17.071 105.773-2.545-.993-5.043-2.02-7.516-3.184-10.763-4.935-23.582-7.96-35.484-6.816l-3.121.281c-20.095 2.33-39.056 10.943-53.879 24.719l-2.645 2.438c-14.766 14.168-25.133 33.045-25.775 53.773-.125 17.577 5.186 32.44 16.818 45.8C525 1198 525 1198 526 1201c-13.732 5.868-27.43 10.665-42 14l-2.353.543c-22.747 4.966-49.987 4.68-72.647-.543l-2.646-.602c-25.238-5.927-48.78-16.593-69.354-32.398l-2.715-2.035c-39.938-31.17-62.73-77.528-72.035-126.527l-.602-3.147c-3.001-16.7-4.036-33.41-3.96-50.353l.006-2.688c.127-32.9 5.101-65.22 16.306-96.25l.897-2.507C282.238 878.305 292.124 859.208 305 842l1.306-1.773c5.384-7.27 11.215-14.048 17.382-20.664l1.834-1.971C337.671 804.779 351.936 794.127 367 785l1.769-1.1c28.481-17.617 61.58-26.376 94.919-26.212M1570 761l2.513.602c31.037 7.63 57.571 23.304 80.487 45.398l2.504 2.313c32.237 30.632 51.813 75.844 60.246 118.812l.603 3.066c3.017 16.253 4.026 32.3 3.96 48.809l-.006 2.846c-.05 15.232-.717 30.112-3.307 45.154l-.504 2.979c-2.111 12.05-5.134 23.756-8.684 35.458l-1.045 3.452-.997 3.17-.888 2.822C1704 1078 1704 1078 1702 1079c-2.012-.842-3.986-1.775-5.937-2.75-19.149-9.11-39.255-9.097-59.198-2.351-23.473 8.567-43.818 25.5-54.865 48.101-7.16 16.797-9.953 34.61-3.202 52.064 3.615 8.317 8.133 15.768 13.733 22.897C1594 1199 1594 1199 1594 1201c-45.573 20.965-96.823 23.057-144 6-17.558-6.65-33.543-16.06-48-28l-1.722-1.398c-41.698-33.959-63.022-83.43-71.278-135.602l-.348-2.148c-6.579-42.067-2.42-87.383 10.348-127.852l.886-2.83c11.46-36 30.55-67.329 57.114-94.17l1.766-1.82a112 112 0 0 1 11.796-10.492l1.828-1.414A919 919 0 0 1 1418 797l1.716-1.31c41.3-31.341 99.11-47.33 150.284-34.69"/><path fill="#F5F8F9" d="M493.313 856a669 669 0 0 1 4.687 4l2.008 1.57c20.15 16.235 32.942 44.065 35.807 69.318 2.947 33.593-8.019 65.065-29.144 91.128-18.028 21.41-43.057 36.322-71.132 39.734-30.67 2.167-60.335-4.098-84.086-24.55L349 1035l-2.14-1.855c-13.644-12.596-22.593-32.146-24.146-50.526a227 227 0 0 1-.089-10.307l.029-3.702c.36-21.727 6.028-41.1 15.346-60.61l.901-1.902C345.91 891.548 355.697 878.513 367 867l2.59-2.664c34.053-33.166 85.634-38.446 123.723-8.336M1558.914 853.707c4.669 3.469 8.917 7.245 13.086 11.293l1.816 1.629c18 16.664 29.224 42.888 30.31 67.173.934 35.82-9.404 67.735-34.097 94.075-19.747 20.577-46.446 33.49-75.158 34.326-27.157.39-54.418-6.366-74.871-25.203l-2.73-2.453c-15.921-15.02-25.647-35.044-26.551-57.047-.275-11.57.575-22.253 3.281-33.5l.773-3.797c5.898-26.946 20.448-51.303 39.227-71.203l2.227-2.457c32.929-34.967 83.321-40.105 122.687-12.836"/><path fill="#FE7281" d="m1739.453 1229.797 2.346-.021c2.484-.018 4.967-.024 7.451-.026l2.575-.002c12.94.016 25.49.474 38.175 3.252l2.386.504c16.443 3.58 32.992 9.42 46.614 19.496.92.677 1.84 1.354 2.79 2.05 14.154 10.978 23.647 25.35 27.21 42.95.404 3.783.478 7.51.438 11.313l-.026 3.044c-.416 18.392-8.12 34.109-20.412 47.643l-1.602 1.883c-17.425 19.213-46.535 26.788-71.398 29.117l-3.523.336c-42.604 3.42-98.94 1.202-133.868-26.973-11.938-10.217-20.185-22.584-22.609-38.363-1.33-19.122 3.371-37.368 15.68-52.422 2.627-3.02 5.44-5.8 8.32-8.578l2.36-2.418c23.756-23.159 64.85-32.588 97.093-32.785M359.66 1256.91c14.3 12.772 24.398 28.206 25.559 47.777.704 21.882-7.076 41.131-21.98 57.165-26.802 25.725-65.978 30.971-101.606 30.335-30.994-.89-63.693-3.621-91.633-18.187l-2.809-1.324c-14.613-7.234-27.408-20.496-32.98-35.85-2.056-6.22-2.757-11.917-2.711-18.451l.017-2.898c.493-19.816 10.147-36.833 23.788-50.844 47.708-45.205 153.773-50.435 204.355-7.723"/><path fill="#FD7180" d="m1064 1057 2.167.47c4.352.968 8.584 2.185 12.833 3.53l2.257.698c23.596 7.384 46.873 18.079 59.114 40.853A76 76 0 0 1 1143 1109l1.074 2.648c2.585 9.36 2.647 22.496-1.75 31.258-15.244 24.104-43.675 34.04-70.324 40.094-24.58 5.046-48.624 7.44-73.687 7.438-1.174 0-2.347.002-3.556.004-28.317-.028-57.6-1.723-84.757-10.442l-2.182-.675c-19.777-6.19-39.687-15.202-50.818-33.638-2.161-7.97-2.14-14.455 1.875-21.812 6.538-10.07 15.721-17.581 25.125-24.875l1.61-1.269c27.17-21.277 59.576-35.214 93.39-41.731l2.255-.453c26.74-5.156 56.24-4.477 82.745 1.453"/><path fill="#322427" d="M648.813 616.063c9.68 9.061 19.051 18.166 20.39 32.042.222 9.863-2.805 18.356-9.203 25.895-7 6.638-15.36 9.969-25 10-13.582-.916-21.2-7.987-30.263-17.321-20.527-20.9-50.837-31.504-79.8-31.991-5.822.099-11.478.7-17.25 1.437-10.637 1.327-19.848.512-28.687-6.125-6.947-6.255-11.329-12.986-12.375-22.36-.357-10.23 1.472-18.494 8-26.515 41.93-43.005 138.989 2.706 174.188 34.938M1435.25 594.625c6.223 4.976 10.404 12.571 11.75 20.375.885 9.597-.283 17.822-5.988 25.77-7.177 8.465-14.49 11.303-25.012 13.98-23.512 6.37-45.553 20.464-58.164 41.816a602 602 0 0 0-4.074 7.262c-4.987 8.979-11.454 15.382-21.407 18.7-11.4 2.287-21.058.188-30.605-6.153-6.223-4.976-10.404-12.571-11.75-20.375-1.786-19.37 10.326-35.596 22-50 2.898-3.437 5.904-6.74 9-10l1.355-1.437c11.472-12.099 24.082-21.48 38.645-29.563l1.885-1.055c21.055-11.61 50.29-23.981 72.365-9.32"/><path fill="#F4F7F8" d="m1057 946 2.03.211c19.92 2.106 19.92 2.106 24.97 3.789.995 11.992-2.391 24.57-10 34-14.543 14.725-38.962 18.853-58.92 19.259q-3.596.02-7.193.007l-3.921.005q-4.076.005-8.15-.01c-3.43-.012-6.858-.005-10.287.007-35.236.1-35.236.1-50.779-4.456l-2.25-.649c-13.09-3.989-25.82-10.949-32.578-23.281-4.507-8.896-6.288-16.997-5.922-26.882 9.582-2.258 19.204-2.955 29-3.625l2.873-.197c43.465-2.866 87.798-2.699 131.127 1.822"/><path fill="#F6F7F8" d="M234.188 1276.402c6.723 5.208 10.936 12.422 12.355 20.805.58 12.98-5.1 24.216-13.543 33.793-7.03 6.107-13.626 7.697-22.809 7.484-5.076-.77-8.433-3.1-12.191-6.484l-2.547-2.266c-2.788-3.107-4.135-5.938-5.703-9.796l-1.516-3.66c-3.258-8.652-3.71-18.517-.265-27.223 4.255-8.479 10.42-13.312 18.844-17.43 10.11-1.982 18.689-.79 27.375 4.777M1724.898 1287.742c6.366 3.81 10.668 8.138 13.102 15.258 1.905 9.423 2.401 18.389-2.516 26.91-3.699 5.208-8.369 8.185-14.484 10.09-8.07 1.13-14.302-.366-21-5-6.368-5.377-10.408-13.336-11.45-21.54-.257-8.297.525-14.254 6.25-20.39 8.902-8.33 18.982-10.945 30.098-5.328M300.504 1287.875c6.425 3.305 11.777 8.328 14.496 15.125 1.122 8.713.126 15.807-5 23-5.572 6.834-11.455 11.837-20.285 13.406-5.158.354-8.71-.888-12.922-3.84-4.062-3.548-7.434-7.98-7.986-13.492-.74-19.957-.74-19.957 5.193-27.074 7.34-7.029 16.496-10.622 26.504-7.125"/><path fill="#F6F6F7" d="M1783.273 1292.957c4.418 2.587 8.668 5.774 10.305 10.828 1.152 6.048 1.446 12.166-1.328 17.715l-2.25 2.5-1.937 2.25c-4.48 3.8-8.848 4.194-14.563 4.066-5.083-.643-8.295-3.046-11.812-6.754-3.926-5.96-4.622-11.554-3.688-18.562 1.998-5.51 5.668-9.328 10.762-12.148 4.909-1.868 9.652-1.94 14.511.105"/></svg>