<?xml version="1.0" encoding="utf-8"?>
<!-- Generator: Adobe Illustrator 21.0.0, SVG Export Plug-In . SVG Version: 6.00 Build 0)  -->
<svg version="1.1" id="图层_1" xmlns="http://www.w3.org/2000/svg" xmlns:xlink="http://www.w3.org/1999/xlink" x="0px" y="0px"
	 viewBox="0 0 1000 1000" style="enable-background:new 0 0 1000 1000;" xml:space="preserve">
<style type="text/css">
	.st0{fill:#7C181D;}
	.st1{fill:#DB6F71;}
	.st2{fill:#E84729;}
	.st3{fill:#231815;}
</style>
<path class="st0" d="M454.2,504c18.8-4,26.9-12.3,32.8-18.4c4.1-4.2,6.8-6.9,11.4-7.3c4.9-0.4,9.9,3.9,16.3,9.3
	c8.7,7.4,19.6,16.7,36.3,18.8c0.4,0,0.8,0.1,1.2,0.1c-1.1,3.6-2.9,9.6-5.6,16.4c-18.2-14.3-36.9-20.8-55.6-19.2
	c-22.4,1.9-38.4,14.8-45.3,21.4c-4.1-8-7.1-15.2-9-19.9C442.9,505.7,448.7,505.3,454.2,504z"/>
<path class="st1" d="M498.2,574.9c-20.4,0-37.7-22.9-48.9-43.2c4.9-5,20.4-19,42.3-20.8c17.3-1.5,34.8,4.9,52.1,19
	C535.9,547.8,520.4,574.9,498.2,574.9z"/>
<path class="st2" d="M129.3,400c-60.6,0-109.9,49.3-109.9,109.9c0,60.6,49.3,109.9,109.9,109.9s109.9-49.3,109.9-109.9
	S189.9,400,129.3,400z"/>
<path class="st2" d="M870.7,400.2c-60.6,0-109.9,49.3-109.9,109.9S810.1,620,870.7,620s109.9-49.3,109.9-109.9
	S931.3,400.2,870.7,400.2z"/>
<path class="st3" d="M270.5,323.9c-11.9,0-22.6-1.6-31.6-3.8c-28.2-6.8-46.2-20.2-47-20.8c-3.2-2.4-3.8-6.9-1.4-10.1
	c2.4-3.2,6.9-3.8,10.1-1.4l0,0c0.2,0.1,16.8,12.4,42.3,18.4c33.8,8,66.6,1.7,97.5-18.7c3.3-2.2,7.8-1.3,10,2.1s1.3,7.8-2.1,10
	C320,318.2,293,323.9,270.5,323.9z M767.1,320.2c28.3-6.8,46.2-20.2,47-20.8c3.2-2.4,3.8-6.9,1.4-10.1s-6.9-3.8-10.1-1.4
	c-0.2,0.1-16.3,12.2-41.7,18.3c-34,8.2-66.9,1.9-98-18.5c-3.3-2.2-7.8-1.3-10,2.1c-2.2,3.3-1.3,7.8,2.1,10
	c28.2,18.5,55.1,24.3,77.7,24.3C747.4,323.9,758.1,322.3,767.1,320.2z M603.8,489.1c-3.3,9.2-18.5,18-41,18c-1.1,0-2.2,0-3.3-0.1
	c-1.2,4.2-3.9,13-8.2,23.1c-9.9,23.7-27.1,51.9-53.2,51.9c-24.8,0-44.4-26.8-56.5-49.2c0,0,0,0,0-0.1c0,0,0,0,0,0
	c-6.9-12.8-11.4-24.2-13.1-28.6c-21.2-3.8-37.6-15.3-38.3-15.8c-1.6-1.1-2-3.4-0.9-5c1.1-1.6,3.4-2,5-0.9c0.3,0.2,17,11.8,37.4,14.9
	c7.4,1.2,14.5,1,20.9-0.5c16.7-3.6,23.6-10.7,29.2-16.4c4.4-4.5,8.6-8.8,15.9-9.5c7.9-0.7,14.2,4.7,21.5,11
	c8.4,7.2,18,15.3,32.5,17.1c1.7,0.2,3.4,0.4,5.1,0.5c24.5,1.8,38.3-7.6,40.2-13c0.7-1.9,2.7-2.8,4.6-2.2
	C603.5,485.2,604.5,487.2,603.8,489.1z M436.7,505.2c1.9,4.6,4.9,11.8,9,19.9c6.8-6.6,22.9-19.5,45.3-21.4
	c18.7-1.6,37.3,4.9,55.6,19.2c2.7-6.9,4.6-12.8,5.6-16.4c-0.4,0-0.8-0.1-1.2-0.1c-16.7-2.1-27.6-11.4-36.3-18.8
	c-6.4-5.4-11.4-9.7-16.3-9.3c-4.6,0.4-7.3,3.2-11.4,7.3c-5.9,6.1-14,14.4-32.8,18.4C448.7,505.3,442.9,505.7,436.7,505.2z
	 M543.7,529.9c-17.3-14-34.8-20.4-52.1-19c-21.9,1.9-37.4,15.9-42.3,20.8c11.2,20.2,28.5,43.2,48.9,43.2
	C520.4,574.9,535.9,547.8,543.7,529.9z M246.4,509.9c0-64.6-52.5-117.1-117.1-117.1S12.2,445.3,12.2,509.9S64.7,627,129.3,627
	S246.4,574.5,246.4,509.9z M239.2,509.9c0,60.6-49.3,109.9-109.9,109.9S19.4,570.5,19.4,509.9c0-60.6,49.3-109.9,109.9-109.9
	S239.2,449.3,239.2,509.9z M987.8,510.1c0-64.6-52.5-117.1-117.1-117.1s-117.1,52.5-117.1,117.1s52.5,117.1,117.1,117.1
	S987.8,574.7,987.8,510.1z M980.6,510.1c0,60.6-49.3,109.9-109.9,109.9s-109.9-49.3-109.9-109.9s49.3-109.9,109.9-109.9
	C931.3,400.2,980.6,449.5,980.6,510.1z M499.6,412.8c0,0-30.4-17-11.5-23.4c2.9-0.9,7-0.5,11.5,2.5c4.5-3,8.7-3.5,11.5-2.5
	C530,395.8,499.6,412.8,499.6,412.8z"/>
</svg>
